<?xml version="1.0" encoding="UTF-8"?>
<svg width="70px" height="74px" viewBox="0 0 70 74" version="1.1" xmlns="http://www.w3.org/2000/svg" xmlns:xlink="http://www.w3.org/1999/xlink">
    <!-- Generator: Sketch 52.3 (67297) - http://www.bohemiancoding.com/sketch -->
    <title>delete</title>
    <desc>Created with Sketch.</desc>
    <g id="Page-1" stroke="none" stroke-width="1" fill="none" fill-rule="evenodd">
        <path d="M67.1698113,11 L51.0377358,11 L51.0377358,8.2 C50.9433962,3.7 47.5471698,0.1 43.3018868,0 L26.6981132,0 C22.4528302,0.1 19.0566038,3.7 18.9622642,8.2 L18.9622642,11 L2.83018868,11 C1.22641509,11 0,12.3 0,14 C0,15.7 1.22641509,17 2.83018868,17 L7.83018868,17 L10.8490566,66.3 C11.0377358,70.6 14.3396226,74 18.3962264,74 L51.6037736,74 C55.6603774,74 58.9622642,70.6 59.1509434,66.3 L62.1698113,17 L67.1698113,17 C68.7735849,17 70,15.7 70,14 C70,12.3 68.7735849,11 67.1698113,11 Z M30,56.0090634 C30,57.7039275 28.7,59 27,59 C25.3,59 24,57.7039275 24,56.0090634 L24,28.9909366 C24,27.2960725 25.3,26 27,26 C28.7,26 30,27.2960725 30,28.9909366 L30,56.0090634 Z M46,56.0090634 C46,57.7039275 44.7,59 43,59 C41.3,59 40,57.7039275 40,56.0090634 L40,28.9909366 C40,27.2960725 41.3,26 43,26 C44.7,26 46,27.2960725 46,28.9909366 L46,56.0090634 Z M46,11 L25,11 L25,8.2 C25.0954545,7 25.9545455,6.1 27.1,6 L43.9,6 C45.0454545,6.1 45.9045455,7 46,8.2 L46,11 Z" id="delete" fill="#959595" fill-rule="nonzero"></path>
    </g>
</svg>