<?xml version="1.0" encoding="UTF-8"?>
<svg width="81px" height="95px" viewBox="0 0 81 95" version="1.1" xmlns="http://www.w3.org/2000/svg" xmlns:xlink="http://www.w3.org/1999/xlink">
    <!-- Generator: Sketch 52.3 (67297) - http://www.bohemiancoding.com/sketch -->
    <title>DownloadPDF</title>
    <desc>Created with Sketch.</desc>
    <g id="Page-1" stroke="none" stroke-width="1" fill="none" fill-rule="evenodd">
        <g id="DownloadPDF" fill="#FFDA43">
            <g id="Group" transform="translate(28.000000, 30.000000)">
                <path d="M0,0.4 C0.7,0.3 1.7,0.2 3.1,0.2 C4.5,0.2 5.5,0.5 6.2,1 C6.8,1.5 7.3,2.3 7.3,3.3 C7.3,4.3 7,5.1 6.4,5.7 C5.6,6.4 4.5,6.8 3.1,6.8 C2.8,6.8 2.5,6.8 2.3,6.8 L2.3,10.4 L0,10.4 L0,0.4 Z M2.3,5 C2.5,5 2.7,5.1 3.1,5.1 C4.3,5.1 5.1,4.5 5.1,3.5 C5.1,2.6 4.5,2 3.3,2 C2.8,2 2.5,2 2.4,2.1 L2.4,5 L2.3,5 Z" id="Shape" fill-rule="nonzero"></path>
                <path d="M8.7,0.4 C9.5,0.3 10.6,0.2 11.8,0.2 C13.7,0.2 15,0.5 15.9,1.3 C16.9,2.1 17.6,3.3 17.6,5.1 C17.6,7 16.9,8.4 15.9,9.2 C14.8,10.1 13.2,10.5 11.2,10.5 C10,10.5 9.2,10.4 8.6,10.4 L8.6,0.4 L8.7,0.4 Z M11,8.6 C11.2,8.6 11.5,8.6 11.8,8.6 C13.9,8.6 15.2,7.5 15.2,5.1 C15.2,3 14,1.9 12,1.9 C11.5,1.9 11.2,1.9 11,2 L11,8.6 Z" id="Shape" fill-rule="nonzero"></path>
                <polygon id="Path" points="19.1 0.2 25.3 0.2 25.3 2.1 21.4 2.1 21.4 4.4 25 4.4 25 6.3 21.4 6.3 21.4 10.4 19.1 10.4 19.1 0.2"></polygon>
            </g>
            <path d="M78.9,23.9 L57.4,2.4 C56.4,1.4 55.1,0.9 53.7,0.9 L6.5,0.9 C3.2,0.9 0.5,3.6 0.5,6.9 L0.5,88.9 C0.5,92.2 3.2,94.9 6.5,94.9 L74.5,94.9 C77.8,94.9 80.5,92.2 80.5,88.9 L80.5,27.9 C80.5,26.4 79.9,24.9 78.9,23.9 Z M40.5,81.3 L29,69.8 L34.9,69.8 L34.9,51.2 L46.2,51.2 L46.2,69.8 L52.1,69.8 L40.5,81.3 Z M67.4,42.7 C67.4,43.9 66.4,44.8 65.3,44.8 L15.8,44.8 C14.6,44.8 13.7,43.8 13.7,42.7 L13.7,29.2 C13.7,28 14.7,27.1 15.8,27.1 L65.3,27.1 C66.5,27.1 67.4,28.1 67.4,29.2 L67.4,42.7 Z" id="Shape" fill-rule="nonzero"></path>
        </g>
    </g>
</svg>