<?xml version="1.0" encoding="UTF-8"?>
<svg width="60px" height="60px" viewBox="0 0 60 60" version="1.1" xmlns="http://www.w3.org/2000/svg" xmlns:xlink="http://www.w3.org/1999/xlink">
    <!-- Generator: Sketch 52.3 (67297) - http://www.bohemiancoding.com/sketch -->
    <title>Printwhite</title>
    <desc>Created with Sketch.</desc>
    <g id="Page-1" stroke="none" stroke-width="1" fill="none" fill-rule="evenodd">
        <g id="Print" fill="#FFFFFF">
            <path d="M16.5,42 L43.5,42 C44.328,42 45,41.328 45,40.5 C45,39.67 44.328,39 43.5,39 L16.5,39 C15.672,39 15,39.67 15,40.5 C15,41.328 15.672,42 16.5,42" id="Path"></path>
            <path d="M16.5,48 L43.5,48 C44.328,48 45,47.328 45,46.5 C45,45.67 44.328,45 43.5,45 L16.5,45 C15.672,45 15,45.67 15,46.5 C15,47.328 15.672,48 16.5,48" id="Path"></path>
            <path d="M16.5,54 L43.5,54 C44.328,54 45,53.328 45,52.5 C45,51.67 44.328,51 43.5,51 L16.5,51 C15.672,51 15,51.67 15,52.5 C15,53.328 15.672,54 16.5,54" id="Path"></path>
            <g id="Group">
                <circle id="Oval" cx="49.5" cy="22.5" r="1.5"></circle>
                <path d="M55.5,12 L51,12 L51,4.5 C51,2.018 48.98,0 46.5,0 L13.5,0 C11.02,0 9,2.018 9,4.5 L9,12 L4.5,12 C2.02,12 0,14.018 0,16.5 L0,43.5 C0,45.98 2.02,48 4.5,48 L9,48 L9,55.5 C9,57.98 11.02,60 13.5,60 L46.5,60 C48.98,60 51,57.98 51,55.5 L51,48 L55.5,48 C57.98,48 60,45.98 60,43.5 L60,16.5 C60,14.018 57.98,12 55.5,12 Z M48,55.5 C48,56.328 47.328,57 46.5,57 L13.5,57 C12.672,57 12,56.328 12,55.5 L12,36 L48,36 L48,55.5 Z M49.5,27 C47.02,27 45,24.98 45,22.5 C45,20.018 47.02,18 49.5,18 C51.98,18 54,20.018 54,22.5 C54,24.98 51.98,27 49.5,27 Z" id="Shape" fill-rule="nonzero"></path>
            </g>
        </g>
    </g>
</svg>