<?xml version="1.0" encoding="UTF-8"?>
<svg width="14px" height="14px" viewBox="0 0 14 14" version="1.1" xmlns="http://www.w3.org/2000/svg" xmlns:xlink="http://www.w3.org/1999/xlink">
    <!-- Generator: Sketch 52.2 (67145) - http://www.bohemiancoding.com/sketch -->
    <title>settings-white</title>
    <desc>Created with Sketch.</desc>
    <g id="Page-1" stroke="none" stroke-width="1" fill="none" fill-rule="evenodd">
        <path d="M12.0585385,7 C12.0585385,7.23 12.0385385,7.46 12.0085385,7.68 L13.4885385,8.84 C13.6185385,8.95 13.6585385,9.14 13.5685385,9.29 L12.1685385,11.71 C12.0785385,11.86 11.8985385,11.92 11.7385385,11.86 L9.99853853,11.16 C9.63853853,11.44 9.23853853,11.67 8.81853853,11.85 L8.55853853,13.7 C8.52853853,13.87 8.37853853,14 8.20853853,14 L5.40853853,14 C5.23853853,14 5.08853853,13.87 5.05853853,13.71 L4.79853853,11.86 C4.36853853,11.68 3.97853853,11.45 3.61853853,11.17 L1.87853853,11.87 C1.71853853,11.93 1.53853853,11.87 1.44853853,11.72 L0.0485385314,9.3 C-0.0414614686,9.15 -0.00146146864,8.96 0.128538531,8.85 L1.60853853,7.69 C1.57853853,7.46 1.55853853,7.23 1.55853853,7 C1.55853853,6.77 1.57853853,6.54 1.60853853,6.32 L0.128538531,5.16 C-0.00146146864,5.05 -0.0414614686,4.86 0.0485385314,4.71 L1.44853853,2.29 C1.53853853,2.14 1.71853853,2.08 1.87853853,2.14 L3.61853853,2.84 C3.97853853,2.56 4.37853853,2.33 4.79853853,2.15 L5.05853853,0.3 C5.08853853,0.13 5.23853853,0 5.40853853,0 L8.20853853,0 C8.37853853,0 8.52853853,0.13 8.55853853,0.29 L8.81853853,2.14 C9.24853853,2.32 9.63853853,2.55 9.99853853,2.83 L11.7385385,2.13 C11.8985385,2.07 12.0785385,2.13 12.1685385,2.28 L13.5685385,4.7 C13.6585385,4.85 13.6185385,5.04 13.4885385,5.15 L12.0085385,6.31 C12.0385385,6.54 12.0585385,6.77 12.0585385,7 Z M7,5 C5.9,5 5,5.9 5,7 C5,8.1 5.9,9 7,9 C8.1,9 9,8.1 9,7 C9,5.9 8.1,5 7,5 Z" id="settings-white" fill="#FFFFFF"></path>
    </g>
</svg>